<?xml version="1.0" encoding="UTF-8"?>
<svg width="280px" height="40px" viewBox="0 0 280 40" version="1.1" xmlns="http://www.w3.org/2000/svg" xmlns:xlink="http://www.w3.org/1999/xlink">
    <!-- Generator: sketchtool 51.2 (57519) - http://www.bohemiancoding.com/sketch -->
    <title>4A5B5E56-7C4D-4A4E-AF45-93CF2C5D6021</title>
    <desc>Created with sketchtool.</desc>
    <defs></defs>
    <g id="Page-1" stroke="none" stroke-width="1" fill="none" fill-rule="evenodd">
        <g id="IDSO_campaign_expand" transform="translate(-30.000000, -10.000000)">
            <g id="Group-8">
                <g id="Header">
                    <g id="Header\">
                        <g id="Group-14" transform="translate(30.000000, 10.000000)">
                            <g id="Inmar_logo" fill="#FFFFFF" fill-rule="nonzero">
                                <path d="M9.17148907,30.5866358 C4.06906781,23.4440841 5.07561826,13.5546201 11.5091321,7.61904762 C6.00592473,10.7847426 2.67954578,16.7754815 2.86447189,23.1878998 C3.04939799,29.6003181 6.71532971,35.3837657 12.3915686,38.218039 C18.0678075,41.0523124 24.8243236,40.4730268 29.9505379,36.71258 C30.4654692,36.342461 30.9589631,35.9425998 31.4285714,35.5149798 C23.8545814,39.8608867 14.2688766,37.738342 9.17148907,30.5866358 Z" id="Shape"></path>
                                <path d="M36.4696021,19.1904956 C35.1578681,27.8366121 27.6581712,34.1032963 19.047619,33.7481593 C19.652272,33.9145293 20.2658794,34.0453367 20.885381,34.139929 C30.0087064,35.3465023 38.4106411,28.9341125 39.8028737,19.7020239 C41.1951063,10.4699353 35.0676928,1.79965695 26.0066109,0.180338423 C25.3974889,0.0881616837 24.7840852,0.0279687684 24.1688489,0 C32.4836086,2.28547794 37.7795189,10.5476666 36.4696021,19.1904956 Z" id="Shape"></path>
                                <path d="M17.1459594,5.01840657 C25.8734124,5.02395047 33.2046014,11.4728868 34.1771235,20 C34.2467969,19.3781093 34.2820074,18.7529525 34.2825989,18.1273008 C34.400588,12.0305097 31.1598227,6.34653728 25.8082535,3.26416224 C20.4566844,0.181787191 13.8290299,0.181787191 8.47746075,3.26416224 C3.12589161,6.34653728 -0.114873763,12.0305097 0.00311541351,18.1273008 C0.00370690668,18.7529525 0.0389173784,19.3781093 0.108590747,20 C1.07869098,11.4692098 8.41505721,5.01806941 17.1459594,5.01840657 Z" id="Shape"></path>
                                <path d="M46.6666667,5.71428571 L50.4761905,5.71428571 L50.4761905,10.0466659 L46.6666667,10.0466659 L46.6666667,5.71428571 Z M50.4761905,13.2773837 L50.4761905,29.17103 L46.6666667,29.5238095 L46.6666667,13.6920544 L50.4761905,13.2773837 Z" id="Shape"></path>
                                <path d="M68.5714286,19.7671406 L68.5714286,30.0953382 L64.5012531,30.4632802 L64.5012531,20.6514925 C64.5506328,19.7901787 64.3271437,18.9353873 63.8632946,18.2114559 C63.4424741,17.6426349 62.7723413,17.3192859 62.0706311,17.3464693 C61.2735222,17.2949656 60.5033675,17.6483009 60.0164046,18.2889174 C59.487518,19.1136583 59.2389021,20.0904353 59.3082707,21.0710756 L59.3082707,30.1082484 L55.2380952,30.4761905 L55.2380952,13.9704397 L59.3082707,13.5379465 L59.3082707,15.4099323 C59.8886587,14.7613086 60.5914503,14.2367529 61.3752563,13.8671578 C62.1475045,13.5168676 62.9851205,13.3385553 63.8313967,13.3442928 C65.206588,13.2438639 66.5418071,13.8384133 67.3975849,14.9322531 C68.1801473,15.9908934 68.5714286,17.6025226 68.5714286,19.7671406 Z" id="Shape"></path>
                                <path d="M84.1569261,15.6815363 C84.7206051,14.954183 85.4257899,14.3579046 86.2266049,13.9314921 C87.0153624,13.5364266 87.881516,13.3353205 88.7575977,13.3438389 C90.089,13.2458047 91.3805845,13.8385644 92.2049843,14.9259822 C92.953061,15.9850495 93.3333333,17.586566 93.3333333,19.743447 L93.3333333,30.0758114 L89.356059,30.4439018 L89.356059,20.6281557 C89.4056853,19.8081651 89.2167613,18.9916025 88.8137034,18.2840006 C88.4758469,17.7486093 87.8908394,17.4370196 87.2739122,17.4638692 C86.5548652,17.4241411 85.8660215,17.7675306 85.4473584,18.3744088 C84.979233,19.1851369 84.7617026,20.1247975 84.8239611,21.0672812 L84.8239611,30.1081 L80.8466868,30.4761905 L80.8466868,20.6281557 C80.8939303,19.8116122 80.7143743,18.9981388 80.3292671,18.2840006 C80.0019511,17.746656 79.4208306,17.4333311 78.8081778,17.4638692 C78.0891308,17.4241411 77.4002871,17.7675306 76.9816239,18.3744088 C76.5104761,19.1838569 76.2927139,20.1245183 76.3582267,21.0672812 L76.3582267,30.1081 L72.3809524,30.4761905 L72.3809524,13.9444076 L76.3582267,13.5117398 L76.3582267,15.3844808 C76.9053555,14.7704254 77.5560264,14.2649064 78.2782902,13.8927457 C79.6493012,13.1537153 81.285601,13.1706656 82.6420708,13.9379498 C83.2992182,14.3551022 83.8254349,14.9607735 84.1569261,15.6815363 Z" id="Shape"></path>
                                <path d="M108.571429,19.081587 L108.571429,29.8740946 L105.012532,30.2874522 L105.012532,28.6921503 C104.59039,29.2588472 104.050164,29.7142408 103.434185,30.022645 C102.769262,30.3363353 102.047234,30.4907064 101.319567,30.4747548 C99.9400841,30.5092 98.6114406,29.9224669 97.6631659,28.8600769 C96.6837178,27.7769816 96.1547268,26.3230143 96.1945115,24.8233819 C96.1383644,23.2850673 96.6700626,21.7877836 97.6692599,20.6704301 C98.6934563,19.5917232 100.096377,19.0157028 101.538951,19.081587 C102.193003,19.0679096 102.8432,19.1908081 103.452467,19.4432748 C103.997265,19.670386 104.480787,20.0364288 104.860182,20.5089623 L104.860182,19.0234586 C104.925659,18.4053189 104.697322,17.7930535 104.250781,17.3894044 C103.571177,17.0184426 102.80622,16.8594305 102.044753,16.9308359 C101.431542,16.934487 100.819809,16.9949991 100.216552,17.1116798 C99.5841391,17.2308651 98.9608656,17.3992469 98.351788,17.6154594 L99.2658883,13.6821038 C100.100766,13.5593883 100.832047,13.4689663 101.465823,13.4172966 C102.099599,13.3656269 102.684623,13.3333333 103.153861,13.3333333 C105.136443,13.3333333 106.538063,13.7165502 107.358722,14.4829841 C108.181412,15.2451121 108.571429,16.7887442 108.571429,19.081587 Z M102.416487,22.3109429 C101.776584,22.2781246 101.149616,22.5096542 100.667509,22.9568141 C100.230059,23.3721461 99.9800825,23.9651816 99.9800825,24.5876389 C99.9800825,25.2100962 100.230059,25.8031317 100.667509,26.2184637 C101.691132,27.0958327 103.15403,27.0958327 104.177653,26.2184637 C104.62231,25.8075627 104.877512,25.2128852 104.877512,24.5876389 C104.877512,23.9623926 104.62231,23.3677151 104.177653,22.9568141 C103.685357,22.5239427 103.054589,22.308814 102.416487,22.3561539 L102.416487,22.3109429 Z" id="Shape"></path>
                                <path d="M121.904762,13.4505215 L121.904762,17.3053968 C120.205978,17.3053968 119.036854,17.638458 118.403847,18.2182313 C117.77084,18.7980045 117.454337,19.8835374 117.454337,21.4748299 L117.454337,29.1722449 L113.333333,29.5238095 L113.333333,13.746576 L117.454337,13.3333333 L117.454337,15.3687075 C117.945239,14.7456594 118.591339,14.2495576 119.333979,13.9254422 C120.145968,13.5949328 121.022268,13.4330471 121.904762,13.4505215 Z" id="Shape"></path>
                                <path d="M120,6.66666667 C121.051971,6.66666667 121.904762,7.51945762 121.904762,8.57142857 C121.904762,9.62339952 121.051971,10.4761905 120,10.4761905 C118.948029,10.4761905 118.095238,9.62339952 118.095238,8.57142857 C118.095238,7.51945762 118.948029,6.66666667 120,6.66666667 Z M120,7.04126984 C119.205117,7.09287581 118.586788,7.75264975 118.586788,8.54920635 C118.586788,9.34576294 119.205117,10.0055369 120,10.0571429 C120.392405,10.0557952 120.767295,9.89450568 121.0381,9.61051989 C121.308905,9.32653411 121.45221,8.94440693 121.434921,8.55238095 C121.44864,8.15855121 121.302611,7.7758932 121.030005,7.49133052 C120.757399,7.20676784 120.381357,7.04445763 119.987302,7.04126984 L120,7.04126984 Z M119.714286,9.53015873 L119.27619,9.53015873 L119.27619,7.62539683 C119.514992,7.58199995 119.75729,7.56074571 120,7.56190476 C120.22163,7.54402307 120.443374,7.59502421 120.634921,7.70793651 C120.754671,7.80576119 120.822608,7.95334972 120.819048,8.10793651 C120.808779,8.32930929 120.649045,8.5152292 120.431746,8.55873016 C120.615873,8.61587302 120.71746,8.76190476 120.774603,9.01587302 C120.791012,9.17789797 120.838435,9.33525404 120.914286,9.47936508 L120.444444,9.47936508 C120.370739,9.33784459 120.319339,9.18578671 120.292063,9.02857143 C120.292063,8.81904762 120.146032,8.73015873 119.904762,8.73015873 L119.695238,8.73015873 L119.714286,9.53015873 Z M119.714286,8.46984127 L119.91746,8.46984127 C120.15873,8.46984127 120.355556,8.38730159 120.355556,8.1968254 C120.355556,8.00634921 120.228571,7.9047619 119.955556,7.9047619 C119.875462,7.89446456 119.794379,7.89446456 119.714286,7.9047619 L119.714286,8.46984127 Z" id="Shape"></path>
                            </g>
                            <text id="INTELLIGENCEPORTAL" font-family="Roboto-Condensed, Roboto" font-size="14" font-style="condensed" font-weight="bold" line-spacing="24" letter-spacing="0.1685185" fill="#FFFFFF">
                                <tspan x="151.297787" y="22">INTELLIGENCE</tspan>
                                <tspan x="234.353212" y="22" font-family="Roboto-Condensed, Roboto" font-weight="normal">PORTAL</tspan>
                            </text>
                            <path d="M137.5,11.5 L137.5,29.5277564" id="Line" stroke="#FFFFFF" stroke-width="2" stroke-linecap="square"></path>
                        </g>
                    </g>
                </g>
            </g>
        </g>
    </g>
</svg>