<?xml version="1.0" encoding="UTF-8"?>
<svg width="16px" height="16px" viewBox="0 0 16 16" version="1.1" xmlns="http://www.w3.org/2000/svg" xmlns:xlink="http://www.w3.org/1999/xlink">
    <!-- Generator: sketchtool 51.2 (57519) - http://www.bohemiancoding.com/sketch -->
    <title>6C661E27-5875-417B-8169-DE150D5757AA</title>
    <desc>Created with sketchtool.</desc>
    <defs></defs>
    <g id="Page-1" stroke="none" stroke-width="1" fill="none" fill-rule="evenodd">
        <g id="IDSO_campaign_expand" transform="translate(-547.000000, -163.000000)" fill="#253D56" fill-rule="nonzero">
            <g id="Group-4" transform="translate(83.000000, 153.000000)">
                <g id="search" transform="translate(464.000000, 10.000000)">
                    <path d="M15.6928418,14.3214428 L12.4024013,11.0733913 C13.3287047,9.90902415 13.8863034,8.44472786 13.8863034,6.84931401 C13.8863034,3.06653784 10.7797455,0 6.94760196,0 C3.1154323,0 0.00887438825,3.06653784 0.00887438825,6.84931401 C0.00887438825,10.6320902 3.1154323,13.698628 6.94757586,13.698628 C8.44781729,13.698628 9.83258728,13.2240644 10.9675693,12.4251208 L14.2906884,15.7054557 C14.6777684,16.0875491 15.3052398,16.0875491 15.6923197,15.7054557 C16.0799217,15.3233881 16.0799217,14.7035362 15.6928418,14.3214428 Z M10.8000783,10.2945443 C10.6677455,10.3420032 10.5418336,10.4114654 10.4357847,10.5166377 C10.3381664,10.6130242 10.2657879,10.7245604 10.2172137,10.8434654 C9.32361501,11.557256 8.18664927,11.9863188 6.94760196,11.9863188 C4.07347471,11.9863188 1.74358238,9.68641546 1.74358238,6.84933977 C1.74358238,4.01226409 4.07347471,1.71233494 6.94760196,1.71233494 C9.8217292,1.71233494 12.1516215,4.01223833 12.1516215,6.84931401 C12.1516215,8.17661836 11.637168,9.38259581 10.8000783,10.2945443 Z" id="Shape"></path>
                </g>
            </g>
        </g>
    </g>
</svg>