<?xml version="1.0" encoding="UTF-8"?>
<svg width="18px" height="18px" viewBox="0 0 18 18" version="1.1" xmlns="http://www.w3.org/2000/svg" xmlns:xlink="http://www.w3.org/1999/xlink">
    <!-- Generator: sketchtool 51.2 (57519) - http://www.bohemiancoding.com/sketch -->
    <title>E92F89D7-1F77-4CB5-A7D2-E50B7C24E0D6</title>
    <desc>Created with sketchtool.</desc>
    <defs></defs>
    <g id="Page-1" stroke="none" stroke-width="1" fill="none" fill-rule="evenodd">
        <g id="IDSO_campaign_expand" transform="translate(-1142.000000, -277.000000)" fill="#A0A0A0" fill-rule="nonzero">
            <g id="Group-11" transform="translate(83.000000, 219.000000)">
                <g id="Group-7" transform="translate(1025.000000, 58.000000)">
                    <g id="trash" transform="translate(34.000000, 0.000000)">
                        <path d="M11.0628571,15.7371429 L9.82857143,15.7371429 L9.82857143,7.86857143 L11.0628571,7.86857143 L11.0628571,15.7371429 Z M8.59428571,15.7371429 L7.36,15.7371429 L7.36,7.86857143 L8.59428571,7.86857143 L8.59428571,15.7371429 Z M6.17142857,15.7371429 L4.93714286,15.7371429 L4.93714286,7.86857143 L6.17142857,7.86857143 L6.17142857,15.7371429 Z M14.1714286,3.39428571 L10.4685714,3.39428571 L5.53142857,3.39428571 L1.82857143,3.39428571 C1.50857143,3.39428571 1.23428571,3.65142857 1.23428571,3.96 C1.23428571,4.26857143 1.50857143,4.52571429 1.82857143,4.52571429 L2.42285714,4.52571429 L13.4857143,4.52571429 L14.1714286,4.52571429 C14.4914286,4.52571429 14.7657143,4.26857143 14.7657143,3.96 C14.7657143,3.65142857 14.4914286,3.39428571 14.1714286,3.39428571 Z M9.82857143,1.13142857 L6.12571429,1.13142857 L6.12571429,2.26285714 L9.82857143,2.26285714 L9.82857143,1.13142857 Z M2.46857143,6.17142857 L2.46857143,6.73714286 L2.46857143,16.3028571 C2.46857143,16.6114286 2.74285714,16.8685714 3.06285714,16.8685714 L12.8914286,16.8685714 C13.2114286,16.8685714 13.4857143,16.6114286 13.4857143,16.3028571 L13.4857143,6.73714286 L13.4857143,6.17142857 L13.4857143,5.60571429 L12.8914286,5.60571429 L3.06285714,5.60571429 L2.46857143,5.60571429 L2.46857143,6.17142857 Z M14.7657143,5.60571429 L14.7657143,16.8685714 C14.7657143,17.4857143 14.2171429,18 13.5314286,18 L2.46857143,18 C1.78285714,18 1.23428571,17.4857143 1.23428571,16.8685714 L1.23428571,5.60571429 C0.548571429,5.60571429 0,5.14285714 0,4.52571429 L0,3.39428571 C0,2.77714286 0.548571429,2.26285714 1.23428571,2.26285714 L4.93714286,2.26285714 L4.93714286,0.565714286 C4.93714286,0.257142857 5.21142857,0 5.53142857,0 L10.4685714,0 C10.7885714,0 11.0628571,0.257142857 11.0628571,0.565714286 L11.0628571,2.26285714 L14.7657143,2.26285714 C15.4514286,2.26285714 16,2.77714286 16,3.39428571 L16,4.52571429 C16,5.14285714 15.4514286,5.60571429 14.7657143,5.60571429 Z" id="Shape"></path>
                    </g>
                </g>
            </g>
        </g>
    </g>
</svg>